<svg width="44" height="49" viewBox="0 0 44 49" fill="none" xmlns="http://www.w3.org/2000/svg">
<g id="Frame" clip-path="url(#clip0_1_527)">
<g id="Group">
<g id="Group_2">
<path id="Vector" d="M20.3004 44.0269C20.3202 44.5112 20.4592 44.9692 20.7174 45.3814C20.9391 45.7413 21.505 45.3978 21.2833 45.0412C21.088 44.7238 20.9788 44.3868 20.9656 44.0171C20.9457 43.5951 20.2838 43.6082 20.3004 44.0269Z" fill="#46A358"/>
</g>
<g id="Group_3">
<path id="Vector_2" d="M28.8092 43.9844C28.7761 44.1676 28.7397 44.3476 28.7066 44.5308C28.6735 44.7042 28.7661 44.8841 28.9449 44.9299C29.1103 44.9724 29.3155 44.8678 29.3486 44.6944C29.3817 44.5111 29.4181 44.3312 29.4512 44.148C29.4843 43.9746 29.3916 43.7946 29.2129 43.7488C29.0475 43.7063 28.8423 43.811 28.8092 43.9844Z" fill="#46A358"/>
</g>
<g id="Group_4">
<path id="Vector_3" d="M33.3398 44.6355C33.7668 44.6257 33.7535 43.9714 33.3266 43.9812C32.8997 43.991 32.9129 44.6453 33.3398 44.6355Z" fill="#46A358"/>
</g>
<g id="Group_5">
<path id="Vector_4" d="M8.48216 45.7936C8.90909 45.7838 8.89585 45.1295 8.46893 45.1393C8.042 45.1491 8.05524 45.8034 8.48216 45.7936Z" fill="#46A358"/>
</g>
<g id="Group_6">
<g id="Group_7">
<path id="Vector_5" d="M20.5883 4.38731C18.0334 11.8369 16.6401 19.6399 16.4878 27.5083C16.4117 31.4638 16.6467 35.4225 17.1928 39.342C17.4443 41.1479 17.762 42.9474 18.1459 44.7304C18.4471 46.1242 18.6026 47.7175 19.6484 48.7808C20.0952 49.2355 20.7803 48.5256 20.3368 48.0741C19.2083 46.9257 19.0924 44.4981 18.8012 42.9964C18.4338 41.0989 18.1426 39.1849 17.9275 37.2612C17.5204 33.6231 17.3847 29.9588 17.5138 26.301C17.7752 18.9201 19.1553 11.621 21.5514 4.62941C21.7566 4.03069 20.7902 3.79186 20.5883 4.38731Z" fill="#46A358"/>
</g>
<g id="Group_8">
<path id="Vector_6" d="M24.4406 4.52135C25.7777 11.9644 25.8108 19.5711 26.0788 27.1058C26.2046 30.6457 26.4197 34.1955 26.3469 37.7388C26.2708 41.4161 25.546 44.8743 24.5697 48.4077C24.4009 49.0195 25.364 49.2583 25.5328 48.6498C26.4495 45.3421 27.1776 42.077 27.3166 38.6352C27.4721 34.791 27.2107 30.9271 27.075 27.0894C26.8036 19.4631 26.7473 11.7779 25.3938 4.24326C25.2812 3.62164 24.3281 3.903 24.4406 4.52135Z" fill="#46A358"/>
</g>
<g id="Group_9">
<path id="Vector_7" d="M31.6288 17.3104C32.0822 27.4951 32.4926 37.8042 29.9774 47.7796C29.8218 48.3947 30.7849 48.6335 30.9405 48.0217C33.4755 37.9613 33.0817 27.5606 32.6217 17.2908C32.5919 16.6593 31.599 16.6757 31.6288 17.3104Z" fill="#46A358"/>
</g>
<g id="Group_10">
<path id="Vector_8" d="M28.8224 17.4608C27.4158 19.0868 26.4759 20.9778 26.0622 23.0815C25.9398 23.6999 26.9029 23.9453 27.0253 23.3236C27.4059 21.3803 28.2366 19.6463 29.5372 18.1413C29.9509 17.6604 29.2394 16.9798 28.8224 17.4608Z" fill="#46A358"/>
</g>
<g id="Group_11">
<path id="Vector_9" d="M38.6054 23.7163C38.5822 31.0907 37.5828 38.3963 35.6235 45.5123C35.4547 46.1241 36.4178 46.3629 36.5866 45.7544C38.5657 38.5567 39.5751 31.1561 39.5983 23.6967C39.5983 23.0652 38.6054 23.0849 38.6054 23.7163Z" fill="#46A358"/>
</g>
<g id="Group_12">
<path id="Vector_10" d="M36.719 21.5211C34.1509 24.4624 32.8899 28.0841 31.9831 31.8106C31.8342 32.4257 32.7973 32.6678 32.9462 32.0527C33.8133 28.5029 34.9849 25.012 37.4372 22.2017C37.8509 21.724 37.136 21.0402 36.719 21.5211Z" fill="#46A358"/>
</g>
<g id="Group_13">
<path id="Vector_11" d="M12.7547 10.4171C14.522 14.5329 15.8061 18.7991 16.6004 23.1995C16.7129 23.8212 17.6628 23.5365 17.5535 22.9182C16.7593 18.5178 15.4719 14.2515 13.7079 10.1357C13.4597 9.56317 12.5065 9.83472 12.7547 10.4171Z" fill="#46A358"/>
</g>
<g id="Group_14">
<path id="Vector_12" d="M10.9146 10.7735C10.395 17.0192 9.88537 23.3434 10.9378 29.5661C12.0399 36.0571 14.7471 42.3911 16.8287 48.6236C17.0273 49.2224 17.9804 48.9443 17.7819 48.3423C15.7664 42.2995 13.1618 36.1553 11.9968 29.8867C10.8253 23.5756 11.378 17.101 11.9075 10.7539C11.9604 10.1258 10.9676 10.1487 10.9146 10.7735Z" fill="#46A358"/>
</g>
<g id="Group_15">
<path id="Vector_13" d="M4.5969 25.8625C7.90972 28.9117 10.5937 32.4779 12.6059 36.4857C12.8905 37.0517 13.7345 36.5348 13.4532 35.972C11.4046 31.8922 8.65767 28.2574 5.28528 25.1526C4.81864 24.724 4.13026 25.4307 4.5969 25.8625Z" fill="#46A358"/>
</g>
<g id="Group_16">
<path id="Vector_14" d="M2.32306 27.1222C4.88794 34.6994 8.33976 41.9364 12.6256 48.7087C12.9632 49.2453 13.8137 48.7349 13.4728 48.1951C9.23002 41.4914 5.8146 34.3395 3.2762 26.8408C3.07432 26.2454 2.12118 26.5202 2.32306 27.1222Z" fill="#46A358"/>
</g>
<g id="Group_17">
<path id="Vector_15" d="M8.06846 46.7621C6.60565 44.1774 4.46109 42.0279 1.79362 40.6604C1.25086 40.3823 0.731266 40.4542 1.78369 40.3496C2.16759 40.3103 2.56474 40.2939 2.94864 40.3005C4.19964 40.3136 5.33149 40.536 6.40708 41.2067C7.65808 41.9854 8.75022 43.1043 9.86884 44.0564C10.352 44.4686 11.0404 43.7619 10.5572 43.3497C9.14074 42.1392 7.73751 40.6276 6.00001 39.8752C5.03032 39.4531 3.98121 39.3288 2.92878 39.3255C2.26026 39.3222 0.870265 39.1979 0.310957 39.7607C-0.781182 40.8534 1.31043 41.4979 1.9624 41.8807C4.19964 43.1828 5.9603 45.0542 7.22122 47.2855C7.53232 47.8286 8.37955 47.315 8.06846 46.7621Z" fill="#46A358"/>
</g>
<g id="Group_18">
<path id="Vector_16" d="M38.2811 38.7923C39.2508 36.6559 41.5046 35.9852 43.6492 35.5402C43.9636 35.4748 44.0893 35.0626 43.9305 34.8139C42.7655 32.9949 40.6441 32.8084 38.6551 32.9883C38.023 33.0439 38.0362 34.0254 38.675 33.9698C40.2801 33.8259 42.1169 33.816 43.0832 35.3276C43.1759 35.0855 43.2719 34.8434 43.3646 34.6013C40.9751 35.0953 38.483 35.9492 37.414 38.3146C37.1526 38.8872 38.0197 39.3681 38.2811 38.7923Z" fill="#46A358"/>
</g>
<g id="Group_19">
<path id="Vector_17" d="M4.43128 24.9138C3.99442 25.4831 3.50461 26.193 2.77983 26.4221C2.06498 26.6478 1.30048 26.3239 1.35674 25.47C1.39976 24.8026 1.97893 24.3151 2.54155 24.037C3.19683 23.7131 4.9939 23.5593 4.51733 24.8026C4.29228 25.3948 5.25535 25.627 5.4804 25.0447C5.94042 23.844 4.83504 22.7938 3.66347 22.7709C2.43233 22.748 0.999311 23.5561 0.535979 24.711C0.102432 25.7808 0.555836 27.1189 1.7605 27.4232C3.23323 27.7929 4.34854 26.638 5.14944 25.5976C5.53004 25.0938 4.81849 24.41 4.43128 24.9138Z" fill="#46A358"/>
</g>
<g id="Group_20">
<path id="Vector_18" d="M12.9963 9.68083C12.3775 9.79534 11.4806 10.1945 10.8617 9.86732C10.2428 9.53688 10.3553 8.71569 10.7128 8.24129C11.0867 7.74727 11.6758 7.56733 12.2715 7.73091C12.7547 7.86505 14.2606 9.11483 13.2115 9.5467C12.629 9.78553 12.9037 10.731 13.4961 10.4889C14.7371 9.97856 14.6941 8.55865 13.8965 7.64585C13.0923 6.72323 11.6527 6.37316 10.5771 7.04386C9.63717 7.63276 9.11427 8.91526 9.62394 9.94257C10.3454 11.4017 12.0333 10.8521 13.281 10.6231C13.9065 10.5053 13.6185 9.56305 12.9963 9.68083Z" fill="#46A358"/>
</g>
<g id="Group_21">
<path id="Vector_19" d="M24.7915 3.6937C23.931 3.9129 22.9282 4.17136 22.0413 3.9587C20.7936 3.66425 20.7472 2.25089 21.6243 1.51803C22.3259 0.932397 23.4015 0.866963 24.252 1.12215C24.7882 1.28247 25.417 1.62927 25.5626 2.21162C25.7016 2.758 25.4335 3.29782 24.8775 3.43196C24.2586 3.58246 24.5399 4.5247 25.1621 4.37421C26.6415 4.01432 26.9658 2.19199 26.0557 1.11888C25.0298 -0.0883685 22.9712 -0.294485 21.5912 0.372939C20.2938 1.0011 19.5029 2.68929 20.3666 3.97833C21.3661 5.47349 23.6199 5.00237 25.0728 4.6294C25.6917 4.47563 25.4103 3.53338 24.7915 3.6937Z" fill="#46A358"/>
</g>
<g id="Group_22">
<path id="Vector_20" d="M31.8704 13.3419C30.444 13.09 28.8819 13.4989 28.23 14.8959C27.7004 16.0279 28.2002 17.4969 29.4313 17.9222C30.6724 18.3508 32.5555 17.8208 33.2439 16.6823C33.9025 15.5863 33.4259 14.1958 32.3867 13.5414C31.8473 13.2012 31.3674 14.0616 31.9035 14.3986C32.572 14.8174 32.7905 15.7695 32.2444 16.3813C31.7579 16.9276 30.7187 17.1599 30.0138 17.0356C29.107 16.8753 28.7562 15.9363 29.2096 15.1609C29.706 14.3136 30.7286 14.1369 31.6288 14.2939C32.2543 14.4052 32.4992 13.4531 31.8704 13.3419Z" fill="#46A358"/>
</g>
<g id="Group_23">
<path id="Vector_21" d="M39.5651 18.7663C38.3108 18.6845 36.5733 18.8612 36.2953 20.3793C36.0669 21.6225 37.4966 23.2649 38.5921 23.7066C41.7196 24.9662 42.3881 18.6845 39.6908 18.8514C39.0554 18.8906 39.072 19.8721 39.7107 19.8329C40.5877 19.7773 40.3726 21.8286 40.174 22.2343C39.7074 23.1995 38.8138 22.8461 38.2247 22.231C37.7713 21.7566 36.9572 20.9158 37.4271 20.2353C37.8805 19.581 38.8932 19.7053 39.5849 19.7478C40.2237 19.7904 40.1972 18.8089 39.5651 18.7663Z" fill="#46A358"/>
</g>
<g id="Group_24">
<path id="Vector_22" d="M21.6374 6.17679C21.5381 6.50723 21.4355 6.83767 21.3362 7.16811C21.2138 7.5738 21.8558 7.73084 21.9783 7.32843C22.0776 6.99799 22.1802 6.66755 22.2795 6.33711C22.4019 5.93142 21.7599 5.77438 21.6374 6.17679Z" fill="#46A358"/>
</g>
<g id="Group_25">
<path id="Vector_23" d="M23.0506 6.23246C23.0539 6.45166 23.0605 6.66759 23.0638 6.88679C23.0738 7.30884 23.7357 7.29575 23.7257 6.87371C23.7224 6.6545 23.7158 6.43857 23.7125 6.21937C23.7059 5.79732 23.044 5.81041 23.0506 6.23246Z" fill="#46A358"/>
</g>
<g id="Group_26">
<path id="Vector_24" d="M22.5808 10.1682C23.0077 10.1584 22.9945 9.50409 22.5675 9.5139C22.1439 9.52045 22.1571 10.1748 22.5808 10.1682Z" fill="#46A358"/>
</g>
<g id="Group_27">
<path id="Vector_25" d="M20.605 10.5347C20.5752 10.8978 20.5455 11.2643 20.519 11.6274C20.5057 11.8041 20.6911 11.9513 20.8566 11.9481C21.0518 11.9448 21.1676 11.791 21.1809 11.6143C21.2107 11.2512 21.2405 10.8848 21.2669 10.5216C21.2802 10.3449 21.0948 10.1977 20.9294 10.201C20.7341 10.2043 20.6183 10.358 20.605 10.5347Z" fill="#46A358"/>
</g>
<g id="Group_28">
<path id="Vector_26" d="M22.1703 11.5948C22.1802 11.9939 22.1868 12.3931 22.1968 12.7955C22.2067 13.2175 22.8686 13.2044 22.8587 12.7824C22.8487 12.3832 22.8421 11.9841 22.8322 11.5817C22.8223 11.1596 22.1603 11.1727 22.1703 11.5948Z" fill="#46A358"/>
</g>
<g id="Group_29">
<path id="Vector_27" d="M23.3419 9.27847C23.3849 9.60564 23.4279 9.9328 23.471 10.2567C23.4941 10.4334 23.6166 10.5806 23.8085 10.5773C23.9707 10.5741 24.156 10.4203 24.1329 10.2436C24.0898 9.91645 24.0468 9.58928 24.0038 9.26538C23.9806 9.08871 23.8582 8.94148 23.6662 8.94476C23.5008 8.94803 23.3154 9.1018 23.3419 9.27847Z" fill="#46A358"/>
</g>
<g id="Group_30">
<path id="Vector_28" d="M23.4379 14.1859C23.4412 14.3692 23.4445 14.5491 23.4478 14.7323C23.4577 15.1544 24.1196 15.1413 24.1097 14.7192C24.1064 14.536 24.1031 14.3561 24.0998 14.1729C24.0898 13.7508 23.4279 13.7639 23.4379 14.1859Z" fill="#46A358"/>
</g>
<g id="Group_31">
<path id="Vector_29" d="M22.0048 8.86951C21.9717 9.1934 22.0445 9.49767 22.1802 9.79212C22.253 9.95244 22.4979 9.98515 22.6369 9.90009C22.8057 9.79867 22.8189 9.61218 22.7461 9.4486C22.66 9.26211 22.6468 9.05599 22.6667 8.85315C22.6832 8.67648 22.4913 8.52925 22.3291 8.53252C22.1338 8.53907 22.0213 8.69284 22.0048 8.86951Z" fill="#46A358"/>
</g>
<g id="Group_32">
<path id="Vector_30" d="M19.6948 14.0648C19.6286 14.4313 19.5624 14.7944 19.4962 15.1608C19.4201 15.5731 20.0622 15.7367 20.1383 15.3212C20.2045 14.9547 20.2707 14.5916 20.3369 14.2251C20.4097 13.8129 19.7709 13.6493 19.6948 14.0648Z" fill="#46A358"/>
</g>
<g id="Group_33">
<path id="Vector_31" d="M21.5183 16.3222C21.4885 16.5774 21.4554 16.8326 21.4256 17.0878C21.4058 17.2645 21.4753 17.4379 21.6639 17.487C21.8195 17.5262 22.0445 17.4281 22.0677 17.2514C22.0975 16.9962 22.1306 16.741 22.1603 16.4858C22.1802 16.3092 22.1107 16.1358 21.9221 16.0867C21.7665 16.0442 21.5415 16.1456 21.5183 16.3222Z" fill="#46A358"/>
</g>
<g id="Group_34">
<path id="Vector_32" d="M20.9359 20.978C20.9888 21.2561 20.9557 21.5277 20.8664 21.7927C20.7307 22.1918 21.3727 22.3521 21.5084 21.953C21.6375 21.5735 21.6474 21.1841 21.5713 20.7915C21.5382 20.6181 21.3198 20.5233 21.1609 20.5723C20.9723 20.628 20.8995 20.8046 20.9359 20.978Z" fill="#46A358"/>
</g>
<g id="Group_35">
<path id="Vector_33" d="M18.9138 18.3378C18.884 18.593 18.8509 18.8482 18.8211 19.1034C18.8013 19.28 18.8708 19.4534 19.0594 19.5025C19.215 19.5418 19.44 19.4436 19.4632 19.2669C19.493 19.0117 19.5261 18.7566 19.5559 18.5014C19.5757 18.3247 19.5062 18.1513 19.3176 18.1022C19.1587 18.063 18.9337 18.1611 18.9138 18.3378Z" fill="#46A358"/>
</g>
<g id="Group_36">
<path id="Vector_34" d="M23.4214 18.8578C23.5008 19.221 23.5769 19.5841 23.6563 19.944C23.7457 20.3562 24.3811 20.1665 24.2918 19.7575C24.2123 19.3944 24.1362 19.0312 24.0568 18.6713C23.9674 18.2591 23.3353 18.4456 23.4214 18.8578Z" fill="#46A358"/>
</g>
<g id="Group_37">
<path id="Vector_35" d="M23.8548 23.6673C23.8614 24.0304 23.8713 24.3936 23.878 24.7567C23.8879 25.1788 24.5498 25.1657 24.5399 24.7437C24.5332 24.3805 24.5233 24.0173 24.5167 23.6542C24.5101 23.2321 23.8482 23.2452 23.8548 23.6673Z" fill="#46A358"/>
</g>
<g id="Group_38">
<path id="Vector_36" d="M23.0737 28.4637C23.1167 28.7189 23.1564 28.9708 23.1995 29.226C23.2292 29.3994 23.4543 29.491 23.6098 29.4452C23.7985 29.3896 23.8614 29.2129 23.8316 29.0395C23.7886 28.7843 23.7488 28.5324 23.7058 28.2772C23.676 28.1038 23.451 28.0122 23.2954 28.058C23.1068 28.1103 23.0439 28.287 23.0737 28.4637Z" fill="#46A358"/>
</g>
<g id="Group_39">
<path id="Vector_37" d="M20.3733 26.0295C20.3766 26.2487 20.3833 26.4646 20.3866 26.6838C20.3965 27.1058 21.0584 27.0928 21.0485 26.6707C21.0452 26.4515 21.0386 26.2356 21.0352 26.0164C21.0286 25.5943 20.3667 25.6074 20.3733 26.0295Z" fill="#46A358"/>
</g>
<g id="Group_40">
<path id="Vector_38" d="M18.5496 23.2289C18.5728 23.5004 18.5463 23.7556 18.4669 24.0174C18.3444 24.423 18.9865 24.5801 19.1089 24.1777C19.2049 23.8669 19.238 23.5397 19.2115 23.2158C19.1751 22.8003 18.5132 22.8101 18.5496 23.2289Z" fill="#46A358"/>
</g>
<g id="Group_41">
<path id="Vector_39" d="M19.3804 30.7604C19.3473 31.0156 19.3175 31.2708 19.2844 31.526C19.2613 31.7026 19.3341 31.876 19.5227 31.9251C19.6783 31.9644 19.9033 31.8662 19.9265 31.6895C19.9596 31.4343 19.9894 31.1792 20.0225 30.924C20.0456 30.7473 19.9728 30.5739 19.7842 30.5248C19.6253 30.4856 19.4036 30.5837 19.3804 30.7604Z" fill="#46A358"/>
</g>
<g id="Group_42">
<path id="Vector_40" d="M22.756 34.4672C22.799 34.6831 22.8387 34.9023 22.8818 35.1182C22.9149 35.2916 23.1333 35.3865 23.2921 35.3374C23.4775 35.2818 23.547 35.1051 23.5139 34.9317C23.4709 34.7158 23.4311 34.4966 23.3881 34.2807C23.355 34.1073 23.1366 34.0124 22.9777 34.0615C22.7924 34.1171 22.7229 34.2938 22.756 34.4672Z" fill="#46A358"/>
</g>
<g id="Group_43">
<path id="Vector_41" d="M20.9657 38.2131C21.0452 38.5763 21.1279 38.9362 21.2073 39.2993C21.3 39.7116 21.9321 39.5218 21.8428 39.1129C21.7633 38.7497 21.6806 38.3898 21.6012 38.0267C21.5085 37.6144 20.8731 37.8009 20.9657 38.2131Z" fill="#46A358"/>
</g>
<g id="Group_44">
<path id="Vector_42" d="M24.6591 40.5818C24.5896 40.837 24.5234 41.0922 24.4539 41.3507C24.3446 41.7596 24.9867 41.9199 25.0959 41.511C25.1654 41.2558 25.2316 41.0006 25.3011 40.7421C25.4103 40.3332 24.7683 40.1729 24.6591 40.5818Z" fill="#46A358"/>
</g>
<g id="Group_45">
<path id="Vector_43" d="M24.166 12.1869C24.2091 12.4421 24.2521 12.6941 24.2951 12.9492C24.3249 13.1226 24.5499 13.2143 24.7055 13.1684C24.8941 13.1128 24.957 12.9362 24.9272 12.7628C24.8842 12.5076 24.8412 12.2556 24.7981 12.0005C24.7684 11.8271 24.5433 11.7355 24.3878 11.7813C24.2024 11.8369 24.1362 12.0135 24.166 12.1869Z" fill="#46A358"/>
</g>
<g id="Group_46">
<path id="Vector_44" d="M24.2454 16.6789C24.2918 17.006 24.3381 17.3299 24.3844 17.6571C24.4109 17.8305 24.5267 17.981 24.722 17.9777C24.8842 17.9744 25.0695 17.8207 25.0463 17.644C25 17.3168 24.9537 16.9929 24.9073 16.6658C24.8809 16.4924 24.765 16.3419 24.5698 16.3451C24.4076 16.3484 24.2189 16.5055 24.2454 16.6789Z" fill="#46A358"/>
</g>
<g id="Group_47">
<path id="Vector_45" d="M29.2097 20.3106C29.1204 20.8242 29.0277 21.3346 28.9384 21.8483C28.8656 22.2605 29.5076 22.4241 29.5804 22.0086C29.6698 21.4949 29.7624 20.9845 29.8518 20.4709C29.9246 20.0586 29.2826 19.8951 29.2097 20.3106Z" fill="#46A358"/>
</g>
<g id="Group_48">
<path id="Vector_46" d="M30.4971 19.388C30.5037 19.6432 30.507 19.8984 30.5137 20.1503C30.5236 20.5723 31.1855 20.5592 31.1756 20.1372C31.1689 19.882 31.1656 19.6268 31.159 19.3749C31.1491 18.9528 30.4905 18.9659 30.4971 19.388Z" fill="#46A358"/>
</g>
<g id="Group_49">
<path id="Vector_47" d="M30.1364 22.8854C30.0735 23.4318 30.0139 23.9781 29.9511 24.5245C29.9047 24.9433 30.5666 24.9237 30.613 24.5114C30.6758 23.9651 30.7354 23.4187 30.7983 22.8723C30.8446 22.4568 30.1827 22.4732 30.1364 22.8854Z" fill="#46A358"/>
</g>
<g id="Group_50">
<path id="Vector_48" d="M28.422 23.8439C28.2796 24.1383 28.1406 24.4328 27.9983 24.724C27.8163 25.1035 28.3955 25.4241 28.5775 25.0413C28.7198 24.7469 28.8588 24.4524 29.0011 24.1613C29.1832 23.7817 28.604 23.4611 28.422 23.8439Z" fill="#46A358"/>
</g>
<g id="Group_51">
<path id="Vector_49" d="M27.4258 22.0936C27.3398 22.3161 27.257 22.5353 27.171 22.7577C27.1081 22.9246 27.2504 23.1144 27.4093 23.1569C27.5979 23.206 27.7468 23.0849 27.813 22.9213C27.8991 22.6989 27.9818 22.4797 28.0679 22.2572C28.1307 22.0903 27.9884 21.9006 27.8296 21.858C27.6409 21.809 27.492 21.9267 27.4258 22.0936Z" fill="#46A358"/>
</g>
<g id="Group_52">
<path id="Vector_50" d="M29.3155 26.3925C29.3023 26.6837 29.2924 26.9749 29.2791 27.266C29.2626 27.6881 29.9245 27.6717 29.941 27.253C29.9543 26.9618 29.9642 26.6706 29.9774 26.3794C29.994 25.9574 29.3321 25.9737 29.3155 26.3925Z" fill="#46A358"/>
</g>
<g id="Group_53">
<path id="Vector_51" d="M30.6724 28.1103C30.6592 28.3818 30.646 28.6566 30.6327 28.9282C30.6228 29.1048 30.8015 29.2521 30.9703 29.2488C31.1589 29.2455 31.2847 29.0918 31.2946 28.9151C31.3079 28.6435 31.3211 28.3687 31.3343 28.0972C31.3443 27.9205 31.1656 27.7733 30.9968 27.7765C30.8081 27.7798 30.6824 27.9336 30.6724 28.1103Z" fill="#46A358"/>
</g>
<g id="Group_54">
<path id="Vector_52" d="M30.1497 31.035C30.1199 31.2706 30.0868 31.5094 30.057 31.745C30.0339 31.9184 30.11 32.095 30.2953 32.1441C30.4542 32.1834 30.6759 32.0852 30.6991 31.9085C30.7288 31.673 30.7619 31.4342 30.7917 31.1986C30.8149 31.0252 30.7388 30.8485 30.5534 30.7995C30.3946 30.7569 30.1728 30.8583 30.1497 31.035Z" fill="#46A358"/>
</g>
<g id="Group_55">
<path id="Vector_53" d="M27.6808 29.0133C27.6477 29.2129 27.6146 29.4157 27.5815 29.6153C27.5517 29.7887 27.6377 29.9653 27.8198 30.0144C27.9819 30.0537 28.1937 29.9523 28.2235 29.7789C28.2566 29.5793 28.2897 29.3764 28.3228 29.1769C28.3526 29.0035 28.2665 28.8268 28.0845 28.7777C27.9224 28.7352 27.7105 28.8366 27.6808 29.0133Z" fill="#46A358"/>
</g>
<g id="Group_56">
<path id="Vector_54" d="M28.1573 34.2152C28.1606 34.3592 28.164 34.5064 28.1673 34.6504C28.1772 35.0724 28.8391 35.0593 28.8292 34.6373C28.8259 34.4933 28.8225 34.3461 28.8192 34.2022C28.8093 33.7801 28.1474 33.7932 28.1573 34.2152Z" fill="#46A358"/>
</g>
<g id="Group_57">
<path id="Vector_55" d="M30.2953 36.1357C30.2986 36.2796 30.3019 36.4268 30.3052 36.5708C30.3151 36.9928 30.977 36.9797 30.9671 36.5577C30.9638 36.4137 30.9605 36.2665 30.9572 36.1226C30.9473 35.7005 30.2853 35.7136 30.2953 36.1357Z" fill="#46A358"/>
</g>
<g id="Group_58">
<path id="Vector_56" d="M28.3889 40.101C28.4154 40.3562 28.3889 40.5918 28.3061 40.8339C28.2499 41.0007 28.3823 41.1905 28.5444 41.233C28.7298 41.2788 28.8886 41.1643 28.9482 40.9974C29.0475 40.7063 29.0839 40.3955 29.0508 40.0912C29.0309 39.9145 28.9019 39.7673 28.7132 39.7706C28.5444 39.7706 28.369 39.9243 28.3889 40.101Z" fill="#46A358"/>
</g>
<g id="Group_59">
<path id="Vector_57" d="M29.2063 18.6517C29.1203 18.8185 29.0309 18.9854 28.9449 19.149C28.7496 19.5219 29.3254 19.8425 29.524 19.4663C29.6101 19.2994 29.6994 19.1326 29.7855 18.969C29.9807 18.596 29.4049 18.2754 29.2063 18.6517Z" fill="#46A358"/>
</g>
<g id="Group_60">
<path id="Vector_58" d="M12.0399 12.4324C12.0995 12.776 12.1624 13.1228 12.2219 13.4663C12.2517 13.6397 12.4768 13.7313 12.6323 13.6855C12.821 13.6299 12.8871 13.4532 12.854 13.2798C12.7945 12.9363 12.7316 12.5895 12.672 12.2459C12.6422 12.0725 12.4172 11.9809 12.2616 12.0267C12.073 12.0824 12.0068 12.259 12.0399 12.4324Z" fill="#46A358"/>
</g>
<g id="Group_61">
<path id="Vector_59" d="M13.0262 14.595C13.1785 14.9549 13.334 15.318 13.4863 15.6779C13.5558 15.8415 13.7146 15.9527 13.8966 15.8971C14.0522 15.8513 14.1879 15.655 14.1184 15.4914C13.9661 15.1315 13.8106 14.7684 13.6584 14.4085C13.5889 14.2449 13.43 14.1337 13.248 14.1893C13.0924 14.2351 12.9567 14.4314 13.0262 14.595Z" fill="#46A358"/>
</g>
<g id="Group_62">
<path id="Vector_60" d="M12.1226 15.8023C12.0465 16.3061 12.0531 16.787 12.1424 17.2843C12.2153 17.6966 12.8474 17.5101 12.7779 17.0978C12.7117 16.7249 12.7117 16.3388 12.7679 15.9626C12.8242 15.5503 12.1822 15.3868 12.1226 15.8023Z" fill="#46A358"/>
</g>
<g id="Group_63">
<path id="Vector_61" d="M13.3803 17.6931C13.4928 18.0006 13.602 18.3114 13.7145 18.619C13.8568 19.0149 14.4922 18.8316 14.3499 18.4325C14.2374 18.125 14.1282 17.8141 14.0157 17.5066C13.8734 17.1107 13.2379 17.294 13.3803 17.6931Z" fill="#46A358"/>
</g>
<g id="Group_64">
<path id="Vector_62" d="M11.8414 19.0019C11.848 19.365 11.8579 19.7282 11.8645 20.0913C11.8745 20.5134 12.5364 20.5003 12.5264 20.0783C12.5198 19.7151 12.5099 19.3519 12.5033 18.9888C12.4966 18.5667 11.8347 18.5798 11.8414 19.0019Z" fill="#46A358"/>
</g>
<g id="Group_65">
<path id="Vector_63" d="M13.0824 20.232C13.089 20.5591 13.0956 20.8863 13.1022 21.2135C13.1122 21.6355 13.7741 21.6224 13.7641 21.2004C13.7575 20.8732 13.7509 20.5461 13.7443 20.2189C13.7344 19.7968 13.0725 19.8099 13.0824 20.232Z" fill="#46A358"/>
</g>
<g id="Group_66">
<path id="Vector_64" d="M14.9323 20.8797C15.0647 21.2593 15.2004 21.6388 15.3328 22.0183C15.4718 22.4142 16.1072 22.231 15.9682 21.8318C15.8358 21.4523 15.7002 21.0728 15.5678 20.6933C15.4288 20.2974 14.7933 20.4806 14.9323 20.8797Z" fill="#46A358"/>
</g>
<g id="Group_67">
<path id="Vector_65" d="M15.6573 24.1383C15.697 24.3379 15.74 24.5375 15.7798 24.737C15.8162 24.9104 16.0313 25.0053 16.1901 24.9562C16.3755 24.9006 16.4483 24.7239 16.4119 24.5505C16.3722 24.351 16.3291 24.1514 16.2894 23.9518C16.253 23.7784 16.0379 23.6835 15.879 23.7326C15.697 23.785 15.6209 23.9649 15.6573 24.1383Z" fill="#46A358"/>
</g>
<g id="Group_68">
<path id="Vector_66" d="M13.8402 24.1743C13.9494 24.4818 14.0289 24.7959 14.0653 25.1198C14.0851 25.2965 14.2142 25.4437 14.4028 25.4404C14.5683 25.4372 14.747 25.2834 14.7272 25.1067C14.6841 24.7239 14.6047 24.351 14.4756 23.9878C14.3333 23.5919 13.6979 23.7752 13.8402 24.1743Z" fill="#46A358"/>
</g>
<g id="Group_69">
<path id="Vector_67" d="M12.1424 22.8689C12.149 23.1241 12.1523 23.3793 12.1589 23.6312C12.1689 24.0533 12.8308 24.0402 12.8208 23.6181C12.8142 23.363 12.8109 23.1078 12.8043 22.8558C12.7944 22.4338 12.1358 22.4469 12.1424 22.8689Z" fill="#46A358"/>
</g>
<g id="Group_70">
<path id="Vector_68" d="M12.9402 26.7786C12.9667 27.1058 13.0295 27.4264 13.1388 27.7339C13.2811 28.1298 13.9165 27.9466 13.7742 27.5474C13.6815 27.2922 13.6219 27.0338 13.6021 26.7655C13.5723 26.3467 12.9104 26.3598 12.9402 26.7786Z" fill="#46A358"/>
</g>
<g id="Group_71">
<path id="Vector_69" d="M14.3896 29.5629C14.4491 29.7625 14.5087 29.962 14.5683 30.1583C14.6874 30.5608 15.3228 30.3775 15.2037 29.9718C15.1441 29.7723 15.0846 29.576 15.025 29.3764C14.9058 28.974 14.2704 29.1572 14.3896 29.5629Z" fill="#46A358"/>
</g>
<g id="Group_72">
<path id="Vector_70" d="M15.1673 27.0372C15.2071 27.1812 15.2468 27.3251 15.2865 27.4723C15.399 27.878 16.0344 27.6915 15.9219 27.2859C15.8822 27.1419 15.8425 26.9979 15.8028 26.8507C15.6903 26.445 15.0548 26.6315 15.1673 27.0372Z" fill="#46A358"/>
</g>
<g id="Group_73">
<path id="Vector_71" d="M13.291 32.4779C13.3737 32.8018 13.4531 33.129 13.5359 33.4529C13.6385 33.8618 14.2739 33.6753 14.1713 33.2664C14.0885 32.9425 14.0091 32.6153 13.9264 32.2914C13.8238 31.8824 13.1884 32.0689 13.291 32.4779Z" fill="#46A358"/>
</g>
<g id="Group_74">
<path id="Vector_72" d="M14.9357 37.2416C14.9953 37.3855 15.0515 37.5295 15.1111 37.6735C15.1773 37.837 15.3395 37.9483 15.5215 37.8927C15.6803 37.8468 15.8094 37.6505 15.7432 37.487C15.6837 37.343 15.6274 37.1991 15.5678 37.0551C15.5016 36.8915 15.3395 36.7803 15.1574 36.8359C14.9986 36.8817 14.8695 37.078 14.9357 37.2416Z" fill="#46A358"/>
</g>
<g id="Group_75">
<path id="Vector_73" d="M36.4806 23.6836C36.3052 24.0336 36.1265 24.3804 35.9511 24.7305C35.7591 25.1068 36.3383 25.4274 36.5302 25.0479C36.7056 24.6978 36.8843 24.351 37.0598 24.0009C37.2517 23.6247 36.6725 23.3073 36.4806 23.6836Z" fill="#46A358"/>
</g>
<g id="Group_76">
<path id="Vector_74" d="M37.4073 24.5047C37.3246 24.8352 37.2385 25.1623 37.1558 25.4928C37.0499 25.9017 37.6919 26.0621 37.7978 25.6531C37.8806 25.3227 37.9666 24.9955 38.0494 24.6651C38.152 24.2594 37.5099 24.0991 37.4073 24.5047Z" fill="#46A358"/>
</g>
<g id="Group_77">
<path id="Vector_75" d="M36.5931 27.6326C36.5104 27.9074 36.4277 28.1823 36.3416 28.4571C36.2192 28.8628 36.8612 29.0198 36.9837 28.6174C37.0664 28.3426 37.1491 28.0678 37.2352 27.7929C37.3543 27.3905 36.7123 27.2302 36.5931 27.6326Z" fill="#46A358"/>
</g>
<g id="Group_78">
<path id="Vector_76" d="M36.0371 26.3076C35.9676 26.4352 35.8948 26.566 35.8253 26.6936C35.6201 27.0633 36.1993 27.384 36.4045 27.011C36.474 26.8834 36.5468 26.7525 36.6163 26.6249C36.8215 26.2585 36.2423 25.9379 36.0371 26.3076Z" fill="#46A358"/>
</g>
<g id="Group_79">
<path id="Vector_77" d="M37.672 26.4645C37.6422 26.7197 37.6124 26.9749 37.5826 27.2301C37.5628 27.4067 37.6323 27.5801 37.8209 27.6292C37.9764 27.6685 38.2015 27.5703 38.2247 27.3937C38.2545 27.1385 38.2842 26.8833 38.314 26.6281C38.3339 26.4514 38.2644 26.278 38.0757 26.2289C37.9169 26.1897 37.6918 26.2878 37.672 26.4645Z" fill="#46A358"/>
</g>
<g id="Group_80">
<path id="Vector_78" d="M34.5546 28.1626C34.4884 28.372 34.3891 28.5617 34.27 28.745C34.0383 29.0983 34.6175 29.4157 34.8492 29.0623C35.0014 28.8333 35.1139 28.5846 35.1966 28.3229C35.2496 28.1561 35.1238 27.9663 34.9584 27.9238C34.773 27.8812 34.6076 27.9925 34.5546 28.1626Z" fill="#46A358"/>
</g>
<g id="Group_81">
<path id="Vector_79" d="M34.5346 30.9763C34.3923 31.2085 34.3228 31.4735 34.3361 31.7451C34.3559 32.1639 35.0178 32.1541 34.998 31.732C34.9914 31.5684 35.0244 31.4343 35.1138 31.2969C35.3355 30.9337 34.7564 30.6164 34.5346 30.9763Z" fill="#46A358"/>
</g>
<g id="Group_82">
<path id="Vector_80" d="M36.259 30.2565C36.1928 30.4757 36.1266 30.6982 36.0637 30.9174C35.9446 31.3231 36.5866 31.4801 36.7058 31.0777C36.772 30.8585 36.8382 30.636 36.901 30.4168C37.0202 30.0111 36.3781 29.8541 36.259 30.2565Z" fill="#46A358"/>
</g>
<g id="Group_83">
<path id="Vector_81" d="M35.7128 33.4822C35.6433 33.7211 35.5771 33.9566 35.5076 34.1955C35.3917 34.6012 36.0338 34.7615 36.1496 34.3558C36.2191 34.1169 36.2853 33.8814 36.3548 33.6426C36.4706 33.2401 35.8286 33.0798 35.7128 33.4822Z" fill="#46A358"/>
</g>
<g id="Group_84">
<path id="Vector_82" d="M37.8112 28.8366C37.7946 28.9838 37.7814 29.1277 37.7648 29.275C37.745 29.4516 37.9402 29.5989 38.1024 29.5956C38.301 29.5923 38.4069 29.4386 38.4267 29.2619C38.4433 29.1147 38.4565 28.9707 38.4731 28.8235C38.4929 28.6468 38.2977 28.4996 38.1355 28.5029C37.9369 28.5094 37.831 28.6599 37.8112 28.8366Z" fill="#46A358"/>
</g>
<g id="Group_85">
<path id="Vector_83" d="M33.6542 35.3799C33.6211 35.4911 33.5847 35.5991 33.5516 35.7103C33.4259 36.1127 34.0679 36.2731 34.1937 35.8706C34.2268 35.7594 34.2632 35.6514 34.2963 35.5402C34.422 35.1378 33.78 34.9807 33.6542 35.3799Z" fill="#46A358"/>
</g>
<g id="Group_86">
<path id="Vector_84" d="M33.1216 38.7203C33.0521 38.9035 32.9792 39.0867 32.9097 39.2699C32.8469 39.4335 32.9892 39.6266 33.148 39.6691C33.34 39.7182 33.4856 39.5971 33.5518 39.4335C33.6213 39.2503 33.6941 39.0671 33.7636 38.8839C33.8265 38.7203 33.6842 38.5273 33.5253 38.4847C33.3334 38.4357 33.1877 38.5534 33.1216 38.7203Z" fill="#46A358"/>
</g>
<g id="Group_87">
<path id="Vector_85" d="M35.7262 37.3887C35.7295 37.4967 35.7295 37.6079 35.7328 37.7159C35.7427 38.1379 36.4046 38.1248 36.3947 37.7028C36.3914 37.5948 36.3914 37.4836 36.3881 37.3756C36.3782 36.9536 35.7163 36.9667 35.7262 37.3887Z" fill="#46A358"/>
</g>
<g id="Group_88">
<path id="Vector_86" d="M34.4916 41.7237C34.475 41.8709 34.4618 42.0148 34.4452 42.1621C34.4254 42.3387 34.6207 42.486 34.7828 42.4827C34.9814 42.4794 35.0873 42.3257 35.1072 42.149C35.1237 42.0018 35.1369 41.8578 35.1535 41.7106C35.1733 41.5339 34.9781 41.3867 34.8159 41.3899C34.6207 41.3932 34.5114 41.547 34.4916 41.7237Z" fill="#46A358"/>
</g>
<g id="Group_89">
<path id="Vector_87" d="M4.25915 28.0808C4.31541 28.2607 4.37498 28.4439 4.43124 28.6239C4.557 29.0263 5.19243 28.8398 5.06667 28.4374C5.0104 28.2574 4.95083 28.0742 4.89457 27.8943C4.7655 27.4919 4.13007 27.6783 4.25915 28.0808Z" fill="#46A358"/>
</g>
<g id="Group_90">
<path id="Vector_88" d="M4.94102 27.3381C5.16276 27.6097 5.38781 27.8812 5.60954 28.1495C5.72207 28.2869 5.96366 28.2574 6.07618 28.1397C6.21187 27.999 6.17878 27.8158 6.06626 27.6784C5.84452 27.4068 5.61947 27.1353 5.39773 26.867C5.28521 26.7296 5.04362 26.759 4.93109 26.8768C4.7954 27.0142 4.8285 27.2007 4.94102 27.3381Z" fill="#46A358"/>
</g>
<g id="Group_91">
<path id="Vector_89" d="M6.21173 29.6414C6.40368 29.9097 6.59563 30.178 6.78428 30.443C7.02918 30.7865 7.59511 30.4463 7.3502 30.1027C7.15825 29.8345 6.9663 29.5662 6.77766 29.3012C6.52944 28.9576 5.96352 29.2946 6.21173 29.6414Z" fill="#46A358"/>
</g>
<g id="Group_92">
<path id="Vector_90" d="M5.39761 30.4233C5.54985 30.6752 5.70209 30.9271 5.85432 31.1791C6.07275 31.5389 6.63868 31.1987 6.42025 30.8388C6.26801 30.5869 6.11578 30.335 5.96354 30.083C5.7418 29.7199 5.17918 30.0601 5.39761 30.4233Z" fill="#46A358"/>
</g>
<g id="Group_93">
<path id="Vector_91" d="M6.88028 33.1225C7.07224 33.4628 7.2675 33.803 7.45945 34.1433C7.66795 34.5097 8.23387 34.1694 8.02538 33.803C7.83342 33.4628 7.63816 33.1225 7.44621 32.7823C7.2344 32.4158 6.67179 32.7561 6.88028 33.1225Z" fill="#46A358"/>
</g>
<g id="Group_94">
<path id="Vector_92" d="M7.46606 32.1311C7.59844 32.3274 7.73082 32.527 7.8632 32.7233C8.09818 33.0734 8.6641 32.7331 8.42913 32.383C8.29675 32.1867 8.16437 31.9872 8.03199 31.7909C7.7937 31.4408 7.22777 31.7778 7.46606 32.1311Z" fill="#46A358"/>
</g>
<g id="Group_95">
<path id="Vector_93" d="M7.77394 30.757C7.88315 30.9893 8.06849 31.1693 8.29022 31.3001C8.66089 31.5128 8.98191 30.9402 8.61125 30.7276C8.47887 30.6523 8.39944 30.5509 8.33656 30.4168C8.26044 30.2565 8.02215 30.2237 7.87984 30.3088C7.71768 30.4102 7.69782 30.5967 7.77394 30.757Z" fill="#46A358"/>
</g>
<g id="Group_96">
<path id="Vector_94" d="M5.29174 32.4746C5.33477 32.6545 5.37448 32.8345 5.41751 33.0177C5.45722 33.1911 5.66572 33.286 5.82789 33.2369C6.00991 33.1846 6.08934 33.0013 6.04962 32.8312C6.0066 32.6513 5.96689 32.4713 5.92386 32.2881C5.88415 32.1147 5.67565 32.0198 5.51348 32.0689C5.33146 32.1213 5.25203 32.3045 5.29174 32.4746Z" fill="#46A358"/>
</g>
<g id="Group_97">
<path id="Vector_95" d="M7.38022 35.8935C7.53246 36.201 7.6847 36.5086 7.83363 36.8128C7.91306 36.9731 8.14803 37.0058 8.29034 36.9208C8.45582 36.8226 8.47898 36.6296 8.39955 36.4693C8.24732 36.1618 8.09508 35.8542 7.94615 35.55C7.86672 35.3896 7.63175 35.3569 7.48944 35.442C7.32396 35.5434 7.3008 35.7364 7.38022 35.8935Z" fill="#46A358"/>
</g>
<g id="Group_98">
<path id="Vector_96" d="M9.85234 34.9677C9.96817 35.1837 10.0807 35.3996 10.1965 35.6155C10.3951 35.9885 10.9577 35.645 10.7625 35.2753C10.6466 35.0593 10.5341 34.8434 10.4183 34.6275C10.2164 34.2545 9.65377 34.5948 9.85234 34.9677Z" fill="#46A358"/>
</g>
<g id="Group_99">
<path id="Vector_97" d="M10.6068 39.6462C10.7028 39.8261 10.7988 40.0061 10.8981 40.1828C11.0999 40.5557 11.6626 40.2122 11.464 39.8425C11.368 39.6626 11.272 39.4826 11.1727 39.3059C10.9709 38.933 10.4049 39.2732 10.6068 39.6462Z" fill="#46A358"/>
</g>
<g id="Group_100">
<path id="Vector_98" d="M11.7818 37.9875C11.8943 38.1675 12.0101 38.3474 12.1227 38.5273C12.3477 38.884 12.9136 38.5437 12.6886 38.1871C12.5761 38.0071 12.4602 37.8272 12.3477 37.6473C12.1193 37.2907 11.5534 37.6309 11.7818 37.9875Z" fill="#46A358"/>
</g>
<g id="Group_101">
<path id="Vector_99" d="M13.0989 43.0324C13.1916 43.196 13.2875 43.3563 13.3802 43.5199C13.592 43.8863 14.1546 43.5428 13.9461 43.1796C13.8535 43.0161 13.7575 42.8558 13.6648 42.6922C13.453 42.3257 12.8871 42.666 13.0989 43.0324Z" fill="#46A358"/>
</g>
<g id="Group_102">
<path id="Vector_100" d="M2.42577 41.0105C2.64751 41.1152 2.87255 41.2167 3.09429 41.3214C3.4782 41.5013 3.80253 40.9288 3.41531 40.7488C3.19358 40.6441 2.96853 40.5427 2.74679 40.438C2.3662 40.2613 2.04187 40.8306 2.42577 41.0105Z" fill="#46A358"/>
</g>
<g id="Group_103">
<path id="Vector_101" d="M4.53395 41.9625C4.77885 42.1359 5.02376 42.3126 5.26535 42.486C5.41097 42.5906 5.63602 42.5023 5.71544 42.3584C5.81142 42.1882 5.73199 42.0181 5.58637 41.9134C5.34147 41.74 5.09657 41.5633 4.85497 41.3899C4.70935 41.2852 4.4843 41.3736 4.40488 41.5175C4.31221 41.6877 4.39164 41.8578 4.53395 41.9625Z" fill="#46A358"/>
</g>
<g id="Group_104">
<path id="Vector_102" d="M4.20952 40.9615C4.37831 40.9975 4.53386 41.0531 4.68609 41.1381C5.06007 41.341 5.38109 40.7684 5.00712 40.5656C4.80854 40.4576 4.59343 40.3758 4.37169 40.3268C3.958 40.2352 3.79252 40.8699 4.20952 40.9615Z" fill="#46A358"/>
</g>
<g id="Group_105">
<path id="Vector_103" d="M6.14907 42.3584C6.298 42.4631 6.44693 42.571 6.59586 42.6757C6.74148 42.7772 6.96652 42.6921 7.04595 42.5481C7.14193 42.378 7.0625 42.2046 6.91688 42.1032C6.76795 41.9985 6.61902 41.8905 6.4701 41.7858C6.32448 41.6844 6.09943 41.7695 6.02 41.9134C5.92733 42.0836 6.00345 42.2537 6.14907 42.3584Z" fill="#46A358"/>
</g>
<g id="Group_106">
<path id="Vector_104" d="M6.10265 43.3366C6.17877 43.4446 6.25489 43.5525 6.33101 43.6605C6.5726 44.004 7.13853 43.667 6.89694 43.3202C6.82082 43.2123 6.7447 43.1043 6.66858 42.9963C6.42698 42.6495 5.85775 42.9898 6.10265 43.3366Z" fill="#46A358"/>
</g>
<g id="Group_107">
<path id="Vector_105" d="M7.60177 43.8633C7.7507 43.9876 7.89962 44.1119 8.05186 44.2363C8.18755 44.3508 8.38943 44.3606 8.5185 44.2264C8.63765 44.1054 8.64758 43.8764 8.50858 43.7651C8.35965 43.6408 8.21072 43.5165 8.05848 43.3922C7.92279 43.2777 7.72091 43.2678 7.59184 43.402C7.4727 43.5198 7.46277 43.7488 7.60177 43.8633Z" fill="#46A358"/>
</g>
<g id="Group_108">
<path id="Vector_106" d="M41.7626 34.225C41.4085 34.1596 41.0577 34.1661 40.7069 34.2545C40.2932 34.3591 40.4819 34.9873 40.8955 34.8826C41.1272 34.8237 41.3622 34.8139 41.5972 34.8597C42.0175 34.9382 42.1796 34.3035 41.7626 34.225Z" fill="#46A358"/>
</g>
<g id="Group_109">
<path id="Vector_107" d="M39.4791 34.9022C39.3534 34.9971 39.2243 35.0887 39.0986 35.1836C38.9562 35.2883 38.8901 35.4715 38.9893 35.6351C39.0754 35.7758 39.3004 35.851 39.4461 35.743C39.5718 35.6482 39.7009 35.5566 39.8266 35.4617C39.969 35.357 40.0351 35.1738 39.9359 35.0102C39.8498 34.8695 39.6248 34.7975 39.4791 34.9022Z" fill="#46A358"/>
</g>
<g id="Group_110">
<path id="Vector_108" d="M39.585 34.5816C40.0119 34.5717 39.9986 33.9174 39.5717 33.9272C39.1448 33.937 39.158 34.5914 39.585 34.5816Z" fill="#46A358"/>
</g>
</g>
</g>
</g>
<defs>
<clipPath id="clip0_1_527">
<rect width="44" height="49" fill="white"/>
</clipPath>
</defs>
</svg>
