<svg width="83" height="40" viewBox="0 0 83 40" fill="none" xmlns="http://www.w3.org/2000/svg">
<g id="Frame" clip-path="url(#clip0_1_746)">
<g id="Group">
<g id="Group_2">
<path id="Vector" d="M30.3859 2.61649C28.0447 8.63105 26.3971 14.9164 25.8568 21.3709C25.3966 26.8879 25.5367 32.8382 28.5583 37.6512C28.9051 38.2029 29.7589 37.6749 29.412 37.1198C26.3804 32.2933 26.3871 26.2381 26.9141 20.7245C27.501 14.5813 29.1285 8.59382 31.3564 2.86696C31.5898 2.2611 30.6193 2.01741 30.3859 2.61649Z" fill="#727272"/>
</g>
<g id="Group_3">
<path id="Vector_2" d="M60.7883 1.6856C66.1144 5.7472 66.121 13.1935 66.6947 19.3062C66.9848 22.3896 67.385 25.4832 67.5251 28.5802C67.6552 31.4097 67.4217 34.4153 65.2139 36.4191C64.7337 36.8557 65.4574 37.5563 65.9343 37.1231C67.8786 35.3597 68.4789 32.8347 68.5456 30.2725C68.6424 26.6238 68.032 22.9142 67.6919 19.2893C67.0949 12.9193 67.0215 5.18196 61.4786 0.954509C60.9717 0.565273 60.2747 1.29298 60.7883 1.6856Z" fill="#727272"/>
</g>
<g id="Group_4">
<path id="Vector_3" d="M28.7582 37.8542C31.583 38.8865 34.4712 39.1437 37.4427 39.3976C40.7311 39.6785 44.0495 40.1016 47.3546 39.9831C50.7096 39.8647 54.0747 39.3806 57.4098 39.0151C60.328 38.6936 63.2228 38.2874 65.9443 37.1095C66.5279 36.8557 66.2511 35.8775 65.6574 36.1348C62.836 37.3566 59.8411 37.7357 56.8162 38.0606C53.6679 38.3991 50.4995 38.856 47.3345 38.9677C44.2329 39.0794 41.1246 38.6969 38.0364 38.4363C34.9581 38.1723 31.9365 37.9422 29.005 36.8726C28.398 36.6458 28.1579 37.6342 28.7582 37.8542Z" fill="#727272"/>
</g>
<g id="Group_5">
<path id="Vector_4" d="M30.6258 3.18513C32.9537 4.14976 35.3316 5.0027 37.8429 5.30393C40.4543 5.61532 43.1157 5.16855 45.7437 5.23624C47.2012 5.27347 48.5118 5.47317 49.9826 5.25993C51.2499 5.07378 52.5173 4.81654 53.7479 4.46115C56.2992 3.72329 58.7705 2.69435 61.2752 1.80757C61.8788 1.59434 61.5987 0.619553 60.9884 0.832787C56.0858 2.56912 51.4901 4.59654 46.1973 4.24792C43.9962 4.10238 41.805 4.43069 39.6105 4.41038C36.6557 4.37992 33.8142 3.41867 31.1061 2.29835C30.5225 2.05465 30.0289 2.93805 30.6258 3.18513Z" fill="#727272"/>
</g>
<g id="Group_6">
<path id="Vector_5" d="M0.663599 6.24142C6.26652 7.13497 11.4792 9.82578 15.3846 14.0194C19.1633 18.0776 21.2877 23.4254 25.4099 27.1925C25.8868 27.6291 26.5838 26.898 26.1035 26.4614C21.7346 22.4675 19.5501 16.6899 15.3479 12.5369C11.4125 8.64792 6.32322 6.11957 0.910395 5.25648C0.276731 5.15494 0.0266002 6.13988 0.663599 6.24142Z" fill="#727272"/>
</g>
<g id="Group_7">
<path id="Vector_6" d="M1.53734 4.42386C6.62333 3.246 12.0295 3.94662 16.5985 6.54266C20.2438 8.61408 23.2353 11.8871 27.5876 12.3338C28.2279 12.3981 28.2013 11.3827 27.5676 11.3184C22.685 10.8175 19.1632 6.35312 14.7609 4.51863C10.4687 2.73153 5.76288 2.4066 1.25386 3.44908C0.62353 3.59462 0.910347 4.5694 1.53734 4.42386Z" fill="#727272"/>
</g>
<g id="Group_8">
<path id="Vector_7" d="M0.723598 3.74353C0.340064 4.27831 0.0932688 4.90447 0.0065569 5.55771C-0.0301289 5.83187 0.0865987 6.09926 0.37008 6.17372C0.60687 6.23803 0.940378 6.07895 0.977064 5.80479C1.05377 5.22263 1.25721 4.71155 1.59739 4.23431C1.75747 4.01092 1.6174 3.66907 1.40395 3.54384C1.14715 3.39829 0.880347 3.52353 0.723598 3.74353Z" fill="#727272"/>
</g>
<g id="Group_9">
<path id="Vector_8" d="M64.8103 4.67094C66.8781 0.653343 73.4482 0.135489 77.1568 1.97675C81.1755 3.9737 83.0298 8.81039 81.3823 13.0412C79.9482 16.7271 76.2629 18.5312 73.2314 20.6567C71.954 21.5537 70.5333 22.5623 69.6495 23.8857C68.7257 25.27 68.8457 27.0301 67.9319 28.411C67.5718 28.9559 68.4489 29.4433 68.8057 28.9052C69.3827 28.0353 69.5494 27.1079 69.8062 26.1128C70.1698 24.7217 70.8968 23.8282 71.9407 22.9177C73.7383 21.3506 75.8461 20.2167 77.7604 18.8121C81.1488 16.3244 83.5267 12.7908 82.8964 8.36362C82.3194 4.33248 79.1244 0.998579 75.1791 0.264106C71.2036 -0.477136 65.9642 0.237029 63.9332 4.18017C63.6364 4.75556 64.5102 5.24972 64.8103 4.67094Z" fill="#727272"/>
</g>
<g id="Group_10">
<path id="Vector_9" d="M65.8242 7.22635C67.2082 4.42384 70.3599 3.69952 73.2214 3.92291C75.129 4.07183 76.3063 4.83338 77.3035 6.49526C78.4074 8.32975 78.3541 9.88331 77.7304 11.8396C76.7499 14.9062 74.9823 16.3277 72.2642 17.7662C70.4833 18.7071 67.7652 19.9392 67.0548 22.0207C66.8447 22.6401 67.8152 22.8838 68.0253 22.2712C68.6723 20.3758 71.8473 19.1438 73.4815 18.2671C74.8989 17.509 76.2263 16.673 77.1834 15.336C78.6976 13.224 79.9416 9.775 78.8443 7.27373C77.5036 4.21399 75.4525 2.85674 72.1775 2.88043C69.2627 2.90074 66.3245 3.95676 64.9537 6.73218C64.6636 7.31435 65.5374 7.80851 65.8242 7.22635Z" fill="#727272"/>
</g>
<g id="Group_11">
<path id="Vector_10" d="M47.3078 14.5711C44.3663 15.0145 41.8817 17.2348 41.5849 20.3386C41.3014 23.2968 43.2691 27.1485 46.6108 26.9218C49.6591 26.7153 52.3672 23.7165 52.6473 20.7177C52.9575 17.4176 50.5195 14.5406 47.2078 14.6862C46.5641 14.7133 46.5841 15.7287 47.2278 15.7016C50.1327 15.573 52.1337 18.2672 51.5901 21.1035C51.1499 23.3983 48.9687 25.7134 46.5908 25.9097C43.6693 26.1501 42.1785 22.3965 42.6421 19.9595C43.0856 17.6241 45.0567 15.9317 47.3279 15.5899C47.9549 15.4917 47.9448 14.473 47.3078 14.5711Z" fill="#727272"/>
</g>
<g id="Group_12">
<path id="Vector_11" d="M47.8815 15.0145C47.7048 12.8619 51.0365 9.58889 52.7041 12.08C53.221 12.8517 53.7213 14.2225 53.5078 15.1736C53.2777 16.1924 52.2938 16.9539 51.5401 17.5801C51.0432 17.993 51.7702 18.6936 52.2605 18.2841C53.4478 17.2992 54.6684 16.1179 54.555 14.429C54.4616 13.048 53.7079 11.2271 52.5206 10.4689C49.986 8.84765 46.6776 12.5606 46.881 15.0382C46.9344 15.6847 47.9349 15.6678 47.8815 15.0145Z" fill="#727272"/>
</g>
<g id="Group_13">
<path id="Vector_12" d="M52.5274 18.5109C53.7814 17.7561 57.0264 17.9558 56.6896 20.1355C56.3694 22.2137 53.718 22.2983 52.1472 22.3186C51.5035 22.3254 51.5235 23.3408 52.1672 23.334C54.3717 23.307 58.227 22.6029 57.6767 19.4383C57.2432 16.9539 53.788 16.5681 52.0038 17.6444C51.4501 17.9795 51.9704 18.846 52.5274 18.5109Z" fill="#727272"/>
</g>
<g id="Group_14">
<path id="Vector_13" d="M51.52 23.5201C53.2743 24.3053 55.2487 26.6374 53.5811 28.5192C51.6301 30.7193 48.8086 28.5429 48.0883 26.4208C47.8781 25.8047 46.9176 26.0891 47.1278 26.7118C48.0616 29.4534 51.4267 31.8227 54.0214 29.4974C56.5427 27.2398 54.5383 23.7672 52.007 22.6299C51.4233 22.3693 50.9331 23.2561 51.52 23.5201Z" fill="#727272"/>
</g>
<g id="Group_15">
<path id="Vector_14" d="M46.6476 26.6746C46.7377 28.3805 46.2674 30.919 44.0063 30.6143C42.9791 30.4756 42.1886 29.538 42.2353 28.4752C42.2754 27.5208 42.939 26.4072 43.3026 25.534C43.5494 24.9383 42.6789 24.4373 42.4288 25.0398C41.8985 26.3192 40.978 27.8118 41.3182 29.2571C41.595 30.4282 42.5055 31.359 43.6728 31.5925C46.651 32.1916 47.7749 29.0743 47.6482 26.6509C47.6148 26.001 46.6143 26.018 46.6476 26.6746Z" fill="#727272"/>
</g>
<g id="Group_16">
<path id="Vector_15" d="M43.1656 24.2715C41.3013 25.0534 38.4232 24.8537 37.7728 22.481C37.4894 21.4385 37.8062 20.2065 38.77 19.6413C39.7072 19.093 40.9178 19.2385 41.9383 19.3637C42.5687 19.4416 42.8221 18.4567 42.1851 18.3788C40.7711 18.2062 39.1669 18.0539 37.9496 18.9745C36.9391 19.7394 36.5288 21.0798 36.7223 22.3152C37.2225 25.5069 40.9011 26.3091 43.4491 25.2429C44.0428 24.9992 43.7626 24.021 43.1656 24.2715Z" fill="#727272"/>
</g>
<g id="Group_17">
<path id="Vector_16" d="M42.5454 18.4939C40.8612 17.58 39.9808 14.2224 41.4582 12.7704C43.3992 10.8648 45.7838 13.5658 46.9577 15.028C47.3646 15.5323 48.0516 14.7978 47.6514 14.2969C46.1173 12.3879 42.7989 9.46697 40.5311 12.2187C38.8635 14.2461 39.8607 18.1893 42.0585 19.384C42.6255 19.6921 43.1157 18.8053 42.5454 18.4939Z" fill="#727272"/>
</g>
<g id="Group_18">
<path id="Vector_17" d="M44.153 25.9571C43.3626 26.7288 42.849 28.8172 44.0629 29.4501C45.517 30.2116 46.1607 27.6224 46.3541 26.6882C46.4408 26.2617 45.7938 26.0959 45.7071 26.5224C45.6204 26.9454 45.5104 27.3618 45.3569 27.7679C45.2802 27.9676 45.1969 28.1673 45.0968 28.3568C44.9434 28.6513 44.8533 28.8409 44.4998 28.8002C43.546 28.6818 44.1997 26.8507 44.6366 26.4276C44.9434 26.123 44.4631 25.6559 44.153 25.9571Z" fill="#727272"/>
</g>
<g id="Group_19">
<path id="Vector_18" d="M48.4519 26.0044C48.2818 26.9792 49.369 27.7441 50.1461 28.0927C50.9331 28.4448 52.0304 28.5632 52.7674 28.0115C53.4711 27.4835 53.3611 26.5256 53.0576 25.7946C52.644 24.7995 51.7936 24.1293 50.8098 23.7773C50.4029 23.6318 50.2428 24.2918 50.6463 24.4339C51.24 24.6472 51.7736 25.0059 52.1504 25.5272C52.2805 25.7099 52.3806 25.9029 52.4639 26.1127C52.6574 26.6069 52.6874 26.8303 52.3439 27.2601C52.0504 27.6257 51.897 27.7103 51.4501 27.7137C51.1699 27.7137 50.8798 27.6561 50.6163 27.5614C50.2128 27.4158 48.9955 26.7727 49.0989 26.177C49.1722 25.7438 48.5286 25.5746 48.4519 26.0044Z" fill="#727272"/>
</g>
<g id="Group_20">
<path id="Vector_19" d="M52.3206 21.6248C53.1577 21.8381 53.9914 21.4725 54.6951 21.0224C55.2087 20.694 55.8857 20.095 55.8257 19.4011C55.7757 18.8223 55.2087 18.5482 54.7018 18.4872C53.828 18.3789 52.9709 18.7614 52.2605 19.242C51.9037 19.4823 52.2505 20.0645 52.6074 19.8208C52.9776 19.567 53.3711 19.3436 53.808 19.2319C54.2115 19.1269 55.3855 18.9577 55.0286 19.8073C54.7151 20.562 53.1943 21.1476 52.484 20.9682C52.0671 20.8633 51.9037 21.5199 52.3206 21.6248Z" fill="#727272"/>
</g>
<g id="Group_21">
<path id="Vector_20" d="M49.209 15.3056C49.1556 14.7912 49.2624 14.2801 49.6292 13.901C49.896 13.6201 50.543 13.2478 50.9232 13.4644C51.2601 13.6573 51.2367 14.4696 51.2367 14.8453C51.2334 15.3835 51.12 15.8946 50.9432 16.3989C50.7998 16.8084 51.4468 16.9709 51.5903 16.5647C51.8771 15.7456 51.9771 14.8859 51.8404 14.0228C51.747 13.4305 51.647 12.8416 50.9899 12.7536C49.5358 12.5539 48.4053 13.9247 48.5487 15.3226C48.5853 15.749 49.2524 15.7389 49.209 15.3056Z" fill="#727272"/>
</g>
<g id="Group_22">
<path id="Vector_21" d="M43.0158 17.5699C42.4988 16.9098 42.0553 15.7117 42.2287 14.8621C42.3321 14.3477 42.4522 14.1987 42.9791 14.1446C43.506 14.0904 43.6361 14.2495 44.0163 14.5609C44.4032 14.8757 44.78 15.2006 45.1636 15.5188C45.4937 15.7929 45.9573 15.3089 45.6238 15.0314C44.6833 14.2461 43.1725 12.4353 41.9752 13.8129C41.0481 14.8824 41.6717 16.9403 42.4455 17.9252C42.709 18.2603 43.2826 17.9117 43.0158 17.5699Z" fill="#727272"/>
</g>
<g id="Group_23">
<path id="Vector_22" d="M41.8185 20.2065C40.5178 19.6785 38.8202 20.8529 39.0203 22.3354C39.2071 23.7401 41.4383 24.2613 42.4421 23.4693C42.7756 23.2053 42.4321 22.6231 42.0953 22.8905C41.5483 23.3237 40.1876 23.2087 39.7874 22.5622C39.2004 21.6246 40.6312 20.4434 41.4983 20.7988C41.8885 20.9579 42.2153 20.3689 41.8185 20.2065Z" fill="#727272"/>
</g>
</g>
</g>
<defs>
<clipPath id="clip0_1_746">
<rect width="83" height="40" fill="white"/>
</clipPath>
</defs>
</svg>
